<?xml version="1.0" encoding="utf-8"?>
<!-- Generator: Adobe Illustrator 23.0.1, SVG Export Plug-In . SVG Version: 6.00 Build 0)  -->
<svg version="1.1" id="Layer_1" xmlns="http://www.w3.org/2000/svg" xmlns:xlink="http://www.w3.org/1999/xlink" x="0px" y="0px"
	 viewBox="0 0 564 564" style="enable-background:new 0 0 564 564;" xml:space="preserve">
<style type="text/css">
	.st0{fill:#D7D7D7;}
</style>
<path class="st0" d="M282,91c62.3,0,69.6,0.3,94.2,1.4c22.8,1,35.1,4.8,43.3,8c10.1,3.7,19.2,9.7,26.8,17.4
	c7.8,7.5,13.7,16.7,17.4,26.8c3.2,8.2,7,20.5,8,43.3c1.1,24.6,1.4,31.9,1.4,94.2s-0.3,69.6-1.4,94.2c-1,22.8-4.8,35.1-8,43.3
	c-7.9,20.3-23.9,36.4-44.2,44.2c-8.2,3.2-20.5,7-43.3,8c-24.6,1.1-31.9,1.4-94.2,1.4s-69.6-0.3-94.2-1.4c-22.8-1-35.1-4.8-43.3-8
	c-10.1-3.7-19.2-9.7-26.8-17.4c-7.8-7.5-13.7-16.6-17.4-26.8c-3.1-8.2-7-20.5-8-43.3c-1.1-24.6-1.4-31.9-1.4-94.2s0.3-69.6,1.4-94.2
	c1-22.8,4.8-35.1,8-43.3c3.7-10.1,9.7-19.2,17.4-26.8c7.5-7.8,16.6-13.7,26.8-17.4c8.2-3.2,20.5-7,43.3-8
	C212.4,91.2,219.8,91,282,91 M282,49c-63.3,0-71.2,0.3-96.1,1.4c-24.8,1.1-41.7,5.1-56.6,10.8C113.8,67,99.7,76.2,88,88.1
	c-11.8,11.6-21,25.7-26.8,41.3c-5.7,14.8-9.7,31.7-10.8,56.6S49,218.7,49,282.1s0.3,71.2,1.4,96.1c1.1,24.8,5.1,41.7,10.8,56.6
	c5.8,15.5,15,29.6,26.9,41.3c11.7,11.8,25.7,21,41.3,26.9c14.8,5.7,31.7,9.7,56.6,10.8c24.9,1.1,32.7,1.4,96.1,1.4
	s71.2-0.3,96.1-1.4c24.8-1.1,41.7-5.1,56.6-10.8c31.3-12.1,56.1-36.8,68.2-68.2c5.7-14.8,9.7-31.7,10.8-56.6
	c1.1-24.9,1.4-32.7,1.4-96.1s-0.3-71.2-1.4-96.1c-1.1-24.8-5.1-41.7-10.8-56.6c-5.8-15.5-15-29.6-26.9-41.3
	c-11.7-11.8-25.7-21-41.3-26.9c-14.8-5.7-31.7-9.7-56.6-10.8C353.2,49.3,345.3,49,282,49L282,49L282,49z"/>
<path class="st0" d="M282,162.3c-66,0-119.7,53.6-119.7,119.7S216,401.7,282,401.7S401.7,348.1,401.7,282l0,0
	C401.7,216,348.1,162.3,282,162.3z M282,359.7c-42.9,0-77.7-34.8-77.7-77.7s34.8-77.7,77.7-77.7s77.7,34.8,77.7,77.7
	S324.9,359.7,282,359.7z"/>
<circle class="st0" cx="406.4" cy="157.6" r="27.9"/>
</svg>
