<?xml version="1.0" encoding="utf-8"?>
<!-- Generator: Adobe Illustrator 22.1.0, SVG Export Plug-In . SVG Version: 6.00 Build 0)  -->
<svg version="1.1" id="Layer_1" xmlns="http://www.w3.org/2000/svg" xmlns:xlink="http://www.w3.org/1999/xlink" x="0px" y="0px"
	 viewBox="0 0 1356.2 762.9" style="enable-background:new 0 0 1356.2 762.9;" xml:space="preserve">
<style type="text/css">
	.st0{fill:#414042;}
	.st1{fill:#FFFFFF;}
	.st2{fill:#F8E1BD;}
	.st3{fill:#EB5532;}
</style>
<title>Asset 4</title>
<path class="st0" d="M618.8,523.7c-2.6,0-4.8,2.1-4.8,4.8c0,2.6,2.1,4.8,4.8,4.8c2.6,0,4.8-2.1,4.8-4.8
	C623.6,525.9,621.5,523.7,618.8,523.7z"/>
<path class="st0" d="M662.5,558.4l24.8-28.2c8.3-9.4,12.3-19.6,11.7-29.6c-0.6-9.2-5.1-17.6-13.3-24.8l-3.6-3.2l-5.3,6
	c0-0.5,0-1.1-0.1-1.6c-0.6-9.2-5.1-17.6-13.3-24.8l-3.6-3.2l-18.2,20.6c-0.6-11.1-4.3-20.4-10.8-26.9c-6.5-6.5-15.7-10-26.8-10h-4.8
	v47.6c-9.8,2.6-19.2,12-24.4,18c-10.8,12.8-19.2,27.5-24.6,43.3c-2.5,7.2-4.4,14.6-5.6,22.1c-1,6.2-1.6,12.5-1.6,18.8
	c0,21.5,6.2,39.1,18,50.9c10.6,10.7,25.1,16.1,43,16.1c21.3,0,38.1-7.9,48.7-22.8C664.6,609.8,668,584.7,662.5,558.4z M599.1,638.9
	c-12.9-0.9-23.2-5.2-30.9-12.9c-6.9-6.9-15.1-20.1-15-43.6c0-5.7,0.5-11.5,1.5-17.2c0.1-0.8,0.3-1.7,0.4-2.5h34.4
	c-4.5,4-9,9-10.8,14c-2.8,7.8-1.8,16,2.6,22.3c4,5.6,10.3,9.3,17.9,10.3V638.9z M599.1,599.5c-4-0.7-7.6-2.9-10-6.1
	c-2.7-3.8-3.2-8.6-1.4-13.5c1.4-3.8,6.4-8.7,11.4-12.7L599.1,599.5z M599.1,553.1h-22.6l22.6-18.2V553.1z M599.1,491.7L599.1,491.7
	v30.7L556.3,557c1-4.1,2.1-8.2,3.5-12.1c9.9-28.5,28.1-48.8,39.3-53.9L599.1,491.7z M608.8,549.2V491c11.2,5.1,29.4,25.3,39.3,53.9
	c0.9,2.7,1.8,5.5,2.6,8.2h-41.9L608.8,549.2z M644.3,620.5c-7.9,11.1-19.9,17.3-35.5,18.3v-76.1h44.1
	C657.2,585.4,654.2,606.6,644.3,620.5z M657.8,541.4c-5.5-15.8-13.8-30.5-24.6-43.3c-5.2-6-14.7-15.5-24.4-18v-37.6
	c6.3,0.8,11.4,3.1,15.2,6.9c6.7,6.7,8.1,16.5,8.1,23.6v3.5c3.2,2.6,6.1,5.3,8.8,8.4l1-1l18.6-21.1c4.1,4.6,6.3,9.6,6.7,14.8
	c0.6,9.2-4.7,17.3-9.2,22.5l-0.1,0.1c1.8,2.9,3.4,5.9,5,8.9l14.9-17l0,0l5-5.7c4.1,4.6,6.3,9.6,6.7,14.8c0.6,9.3-4.8,17.4-9.3,22.6
	L659.6,547C659.1,545.2,658.5,543.3,657.8,541.4L657.8,541.4z"/>
<path class="st0" d="M681.2,616.1c-0.3-0.1-0.5-0.1-0.8-0.1c-1.9,0-2.8,1.8-2.8,3.5c0,1.7,0.9,3.7,2.8,3.7c0.3,0,0.6-0.1,0.8-0.2
	v2.1c-0.3,0.1-0.7,0.2-1,0.2c-3.2,0-5-2.9-5-5.8c0-2.8,1.8-5.6,4.9-5.6c0.4,0,0.8,0.1,1.1,0.2V616.1z"/>
<path class="st0" d="M684.9,613.9v4.4h2.2v-4.4h2.2v11.2h-2.2v-4.8h-2.2v4.8h-2.2v-11.2H684.9z"/>
<path class="st0" d="M693.6,613.9v11.2h-2.2v-11.2H693.6z"/>
<path class="st0" d="M701.1,616.1c-0.3-0.1-0.5-0.1-0.8-0.1c-1.9,0-2.8,1.8-2.8,3.5c0,1.7,0.8,3.7,2.8,3.7c0.3,0,0.6-0.1,0.8-0.2
	v2.1c-0.3,0.1-0.7,0.2-1,0.2c-3.2,0-5-2.9-5-5.8c0-2.8,1.8-5.6,4.9-5.6c0.4,0,0.8,0.1,1.1,0.2L701.1,616.1z"/>
<path class="st0" d="M704.8,613.9v5l0,0l1.8-5h2.3l-2.1,5.2l2.3,6h-2.3l-2-5.7l0,0v5.7h-2.2v-11.2H704.8z"/>
<path class="st0" d="M715.1,613.9v2.1h-2.2v2.4h2v2.1h-2v2.5h2.3v2.1h-4.5v-11.2H715.1z"/>
<path class="st0" d="M718.9,613.9l2.8,6.8l0,0c-0.1-0.6-0.2-1.1-0.2-1.7v-5.1h2.2v11.2h-2.1l-2.7-6.8l0,0l0.1,1.1v5.6h-2.2v-11.2
	H718.9z"/>
<path class="st0" d="M729.4,625.2v-11.2h2.3c0.5,0,3.8-0.3,3.8,3.3c0.1,1.7-1.2,3.2-2.9,3.3c-0.2,0-0.3,0-0.5,0h-0.5v4.6
	L729.4,625.2z M731.6,618.7c1.1,0,1.7-0.4,1.7-1.5c0-0.8-0.3-1.5-1.3-1.5h-0.4V618.7z"/>
<path class="st0" d="M740.7,613.9l2.7,11.2H741l-0.4-1.9h-2.3l-0.4,1.9h-2.2l2.6-11.2H740.7z M739.7,618.5l-0.2-1.7l0,0l-0.2,1.7
	l-0.5,3h1.6L739.7,618.5z"/>
<path class="st0" d="M749.3,616.5c-0.4-0.4-1-0.7-1.6-0.7c-0.6,0-1.1,0.4-1.1,0.9c0,0.1,0,0.1,0,0.2c0,1.8,3.4,1.9,3.4,5
	c0,2-1.1,3.5-3.2,3.5c-0.7,0-1.3-0.2-1.9-0.6v-2.1c0.5,0.4,1.1,0.6,1.7,0.6c0.7,0,1.2-0.5,1.3-1.1c0,0,0-0.1,0-0.1
	c0-0.9-0.7-1.2-1.3-1.6c-1.3-0.9-2.1-1.7-2.1-3.3c0-1.6,1-3.3,2.9-3.3c0.7,0,1.4,0.2,2,0.5L749.3,616.5z"/>
<path class="st0" d="M756.7,613.9v2.1H755v9.1h-2.2V616H751v-2.1H756.7z"/>
<path class="st0" d="M760.3,613.9v7.3c0,0.9-0.1,2.1,1.1,2.1s1.1-0.8,1.1-1.7v-7.7h2.2v8.2c0,1.2-0.1,3.2-3.3,3.2
	c-2.1,0-3.3-1-3.3-3.1v-8.3H760.3z"/>
<path class="st0" d="M766.6,625.2v-11.2h2.2c1.4,0,3.9,0.2,3.9,3.2c0.1,1.2-0.6,2.3-1.6,2.9l1.9,5.1h-2.3l-1.9-5.2l0,0v5.2
	L766.6,625.2z M768.8,618.8h0.4c1,0,1.4-0.7,1.4-1.6c0.1-0.7-0.4-1.3-1.1-1.4c-0.1,0-0.2,0-0.3,0h-0.3L768.8,618.8z"/>
<path class="st0" d="M779.3,613.9v2.1h-2.2v2.4h2v2.1h-2v2.5h2.3v2.1h-4.5v-11.2H779.3z"/>
<path class="st0" d="M698.4,547.2c-6.8,0-16.2,10.3-20.6,22.6c-0.9,2.6-1.6,5.2-2.1,7.9c-0.4,2.2-0.6,4.5-0.6,6.8
	c0,7.8,2.3,14.3,6.7,18.7c4.1,4.1,9.6,6.2,16.5,6.2c10.3,0,15.9-4.8,18.7-8.8c5.3-7.5,6-19.3,1.9-30.8
	C714.7,557.6,705.2,547.2,698.4,547.2z M711.7,596.8c-2.8,4-7.3,6-13.3,6c-5,0-9-1.4-11.8-4.2c-4-4-4.8-9.8-4.8-13.9
	c0-1.9,0.2-3.8,0.5-5.7c0.4-2.3,1-4.6,1.8-6.8c3.9-11.1,11.6-18.2,14.3-18.2c2.7,0,10.3,7.1,14.3,18.2l0,0
	C716.1,581.6,715.7,591.1,711.7,596.8L711.7,596.8z"/>
<polygon class="st0" points="732.1,548.4 725.5,548.4 725.5,607.4 749.5,607.4 749.5,600.9 732.1,600.9 "/>
<polygon class="st0" points="785.4,585 775.4,548.5 768.6,548.5 785.4,609.6 802.3,548.5 795.5,548.5 "/>
<rect x="756.2" y="548.5" class="st0" width="6.5" height="59"/>
<rect x="809.1" y="548.5" class="st0" width="6.5" height="59"/>
<path class="st0" d="M824.6,547.2v60.2h6.7v-21.6h16.6c2.4,7,3.7,14.3,3.8,21.6h6.6C858.2,599.3,856.1,566.1,824.6,547.2z
	 M831.2,579.1v-18.7c5.8,5.3,10.5,11.6,13.9,18.7L831.2,579.1z"/>
<path class="st0" d="M339.1,488.1c-2.6,0-4.8,2.1-4.8,4.8s2.1,4.8,4.8,4.8c2.6,0,4.8-2.1,4.8-4.8S341.7,488.1,339.1,488.1z"/>
<path class="st0" d="M382.8,522.7l24.8-28.2c8.3-9.4,12.3-19.6,11.7-29.6c-0.6-9.2-5.1-17.6-13.4-24.8l-3.6-3.2l-5.3,6
	c0-0.5,0-1.1-0.1-1.6c-0.6-9.2-5.1-17.6-13.3-24.8l-3.6-3.2l-18.2,20.6c-0.6-11.2-4.3-20.4-10.8-26.9c-6.5-6.5-15.7-10-26.8-10h-4.8
	v47.6c-9.8,2.6-19.2,12-24.4,18c-10.8,12.8-19.2,27.5-24.6,43.3c-2.5,7.2-4.4,14.6-5.6,22.1c-1,6.2-1.6,12.5-1.6,18.8
	c0,21.5,6.2,39.1,18,50.9c10.6,10.6,25.1,16,43,16c21.3,0,38.1-7.9,48.7-22.8C384.8,574.2,388.2,549.1,382.8,522.7z M319.4,603.2
	c-12.9-0.9-23.2-5.2-30.9-12.9c-6.9-6.9-15.1-20.1-15-43.6c0-5.7,0.5-11.5,1.5-17.2c0.1-0.8,0.3-1.7,0.4-2.5h34.4
	c-4.5,4-9,9-10.8,14c-2.8,7.8-1.8,15.9,2.6,22.3c4,5.6,10.3,9.3,17.9,10.3V603.2z M319.4,563.9c-4-0.7-7.6-2.9-10-6.1
	c-2.7-3.8-3.2-8.6-1.4-13.5c1.4-3.8,6.4-8.7,11.5-12.7L319.4,563.9z M319.4,517.4h-22.6l22.6-18.2V517.4z M319.4,456.1L319.4,456.1
	v30.7l-42.9,34.6c1-4.1,2.1-8.2,3.5-12.1c9.9-28.5,28.1-48.8,39.3-53.9L319.4,456.1z M329,513.6v-58.3c11.2,5.1,29.4,25.3,39.3,53.9
	c1,2.7,1.8,5.5,2.6,8.2H329L329,513.6z M364.6,584.9c-7.9,11.1-19.9,17.3-35.5,18.3V527h44.1C377.4,549.8,374.5,571,364.6,584.9
	L364.6,584.9z M378.1,505.8c-5.5-15.8-13.8-30.5-24.6-43.3c-5.2-6-14.7-15.5-24.4-18v-37.6c6.3,0.8,11.4,3.1,15.2,6.9
	c6.7,6.7,8.1,16.5,8.1,23.6v3.5c3.2,2.6,6.1,5.3,8.8,8.4l0.9-1l18.6-21.1c4.1,4.6,6.3,9.6,6.7,14.8c0.6,9.2-4.7,17.3-9.2,22.5
	l-0.1,0.1c1.8,2.9,3.4,5.9,5,8.9l14.9-17l0,0l5-5.7c4.1,4.6,6.3,9.6,6.7,14.8c0.6,9.3-4.8,17.4-9.3,22.6l-20.5,23.3
	C379.3,509.5,378.7,507.7,378.1,505.8L378.1,505.8z"/>
<path class="st0" d="M278.6,688.6c-0.3-0.1-0.5-0.1-0.8-0.1c-1.9,0-2.8,1.8-2.8,3.5c0,1.7,0.9,3.7,2.8,3.7c0.3,0,0.6-0.1,0.9-0.2
	v2.1c-0.3,0.1-0.7,0.2-1,0.2c-3.2,0-5-2.9-5-5.8c0-2.8,1.8-5.6,4.9-5.6c0.4,0,0.8,0.1,1.1,0.2V688.6z"/>
<path class="st0" d="M282.3,686.5v4.4h2.3v-4.4h2.2v11.2h-2.2v-4.8h-2.3v4.8h-2.2v-11.2H282.3z"/>
<path class="st0" d="M291,686.5v11.2h-2.2v-11.2H291z"/>
<path class="st0" d="M298.5,688.6c-0.3-0.1-0.5-0.1-0.8-0.1c-1.9,0-2.8,1.8-2.8,3.5c0,1.7,0.9,3.7,2.8,3.7c0.3,0,0.6-0.1,0.9-0.2
	v2.1c-0.3,0.1-0.7,0.2-1,0.2c-3.2,0-5-2.9-5-5.8c0-2.8,1.8-5.6,4.9-5.6c0.4,0,0.8,0.1,1.1,0.2V688.6z"/>
<path class="st0" d="M302.2,686.5v5l0,0l1.9-5h2.3l-2.1,5.2l2.3,6h-2.3l-2-5.7l0,0v5.7H300v-11.2H302.2z"/>
<path class="st0" d="M312.5,686.5v2.1h-2.2v2.4h2v2.2h-2v2.5h2.3v2.1H308v-11.3H312.5z"/>
<path class="st0" d="M316.3,686.5l2.8,6.8l0,0c-0.1-0.6-0.2-1.1-0.2-1.7v-5.1h2.2v11.2h-2l-2.7-6.8l0,0l0.1,1.1v0.5v5.2h-2.2v-11.2
	H316.3z"/>
<path class="st0" d="M326.7,697.7v-11.3h2.3c0.5,0,3.8-0.3,3.8,3.3c0.1,1.7-1.2,3.2-2.9,3.3c-0.2,0-0.3,0-0.5,0H329v4.6L326.7,697.7
	z M329,691.3c1.1,0,1.7-0.4,1.7-1.5c0-0.8-0.3-1.5-1.3-1.5H329V691.3z"/>
<path class="st0" d="M338.1,686.5l2.7,11.2h-2.4l-0.4-1.9h-2.2l-0.4,1.9h-2.2l2.6-11.2H338.1z M337.2,691l-0.3-1.7l0,0l-0.2,1.7
	l-0.5,3h1.6L337.2,691z"/>
<path class="st0" d="M346.7,689c-0.4-0.4-1-0.7-1.6-0.7c-0.6,0-1.1,0.4-1.1,0.9c0,0.1,0,0.1,0,0.2c0,1.8,3.4,1.9,3.4,5
	c0,2-1.1,3.5-3.2,3.5c-0.7,0-1.3-0.2-1.9-0.6v-2.1c0.5,0.4,1.1,0.6,1.7,0.6c0.7,0,1.2-0.5,1.3-1.1c0,0,0-0.1,0-0.1
	c0-0.9-0.7-1.2-1.3-1.6c-1.3-0.9-2.1-1.7-2.1-3.3s1-3.3,2.9-3.3c0.7,0,1.4,0.2,2,0.6L346.7,689z"/>
<path class="st0" d="M354.1,686.5v2.1h-1.8v9.1h-2.2v-9.1h-1.7v-2.1H354.1z"/>
<path class="st0" d="M357.7,686.5v7.3c0,0.9-0.1,2.1,1.1,2.1c1.2,0,1.1-0.8,1.1-1.7v-7.7h2.2v8.2c0,1.2-0.1,3.2-3.3,3.2
	c-2.1,0-3.3-1-3.3-3.1v-8.3H357.7z"/>
<path class="st0" d="M364,697.7v-11.3h2.2c1.4,0,3.9,0.1,3.9,3.2c0.1,1.2-0.6,2.3-1.6,2.9l1.9,5.1h-2.3l-1.9-5.2l0,0v5.2L364,697.7z
	 M366.2,691.3h0.4c1,0,1.4-0.7,1.4-1.6c0.1-0.7-0.5-1.3-1.2-1.4c-0.1,0-0.2,0-0.4,0h-0.3L366.2,691.3z"/>
<path class="st0" d="M376.7,686.5v2.1h-2.2v2.4h2v2.2h-2v2.5h2.3v2.1h-4.5v-11.3H376.7z"/>
<path class="st0" d="M255.9,619.8c-6.8,0-16.2,10.3-20.6,22.6c-0.9,2.6-1.6,5.2-2.1,7.9c-0.4,2.2-0.6,4.5-0.6,6.8
	c0,7.8,2.3,14.3,6.7,18.7c4.1,4.1,9.6,6.2,16.5,6.2c10.3,0,15.9-4.8,18.7-8.8c5.3-7.5,6-19.3,1.9-30.8
	C272.1,630.1,262.7,619.8,255.9,619.8z M269.2,669.3c-2.8,4-7.3,6-13.3,6c-5,0-9-1.4-11.8-4.2c-4-4-4.8-9.8-4.8-13.9
	c0-1.9,0.2-3.8,0.5-5.7c0.4-2.3,1-4.6,1.8-6.8c3.9-11.1,11.6-18.2,14.3-18.2s10.3,7.1,14.3,18.2l0,0
	C273.6,654.1,273.2,663.6,269.2,669.3z"/>
<polygon class="st0" points="289.5,621 283,621 283,680 306.9,680 306.9,673.4 289.5,673.4 "/>
<polygon class="st0" points="342.9,657.6 332.8,621.1 326,621.1 342.9,682.1 359.8,621.1 353,621.1 "/>
<rect x="313.7" y="621.1" class="st0" width="6.5" height="59"/>
<rect x="366.5" y="621.1" class="st0" width="6.5" height="59"/>
<path class="st0" d="M382,619.8V680h6.7v-21.6h16.6c2.4,7,3.7,14.3,3.8,21.6h6.7C415.7,671.9,413.5,638.7,382,619.8z M388.6,651.7
	V633c5.8,5.3,10.5,11.6,13.9,18.7L388.6,651.7z"/>
<path class="st1" d="M320.9,181.7v-58.2c11.2,5.1,29.4,25.3,39.3,53.9c1,2.7,1.8,5.5,2.6,8.2h-41.9V181.7z"/>
<path class="st0" d="M330.9,156.2c-2.6,0-4.8,2.1-4.8,4.8c0,2.6,2.1,4.8,4.8,4.8c2.6,0,4.8-2.1,4.8-4.8
	C335.7,158.3,333.6,156.2,330.9,156.2z"/>
<path class="st0" d="M374.6,190.8l24.8-28.2c8.3-9.4,12.3-19.6,11.7-29.6c-0.6-9.2-5.1-17.6-13.3-24.8l-3.6-3.2l-5.3,6
	c0-0.5,0-1.1-0.1-1.6c-0.6-9.2-5.1-17.6-13.4-24.8l-3.6-3.2l-18.2,20.6c-0.6-11.2-4.3-20.4-10.8-26.9c-6.5-6.5-15.6-10-26.8-10h-4.8
	v47.6c-9.8,2.6-19.2,12-24.4,18c-10.8,12.8-19.2,27.5-24.7,43.3c-2.5,7.2-4.4,14.6-5.6,22.1c-1,6.2-1.6,12.5-1.6,18.8
	c0,21.5,6.2,39.1,18,50.9c10.6,10.7,25.1,16.1,43,16.1c21.3,0,38.1-7.9,48.7-22.8C376.7,242.3,380.1,217.2,374.6,190.8z
	 M311.2,271.4c-12.9-0.9-23.2-5.2-30.9-12.9c-6.9-6.9-15.1-20.1-15-43.6c0-5.7,0.5-11.5,1.5-17.2c0.1-0.8,0.3-1.7,0.4-2.5h34.4
	c-4.5,4-9,9-10.8,14c-2.8,7.8-1.8,16,2.6,22.3c4,5.6,10.3,9.3,17.9,10.3L311.2,271.4z M311.2,232c-4-0.7-7.6-2.9-10-6.1
	c-2.7-3.8-3.2-8.6-1.4-13.5c1.4-3.9,6.4-8.7,11.5-12.7L311.2,232z M311.2,185.5h-22.6l22.6-18.2V185.5z M311.2,124.2L311.2,124.2
	v30.7l-42.9,34.6c1-4.1,2.2-8.2,3.5-12.2c9.9-28.5,28.1-48.8,39.3-53.9V124.2z M320.9,181.7v-58.3c11.2,5.1,29.4,25.3,39.3,53.9
	c1,2.7,1.8,5.5,2.6,8.2h-41.9V181.7z M356.4,253c-7.9,11.2-19.9,17.3-35.5,18.3v-76.2H365C369.3,217.9,366.3,239.1,356.4,253
	L356.4,253z M369.9,173.9c-5.5-15.8-13.8-30.5-24.6-43.3c-5.2-6-14.6-15.5-24.4-18V74.9c6.3,0.8,11.4,3.1,15.2,6.9
	c6.7,6.7,8.1,16.5,8.1,23.6v3.5c3.1,2.6,6.1,5.4,8.8,8.4l0.9-1l18.7-21.1c4.1,4.6,6.3,9.6,6.7,14.8c0.6,9.2-4.7,17.3-9.2,22.5
	l-0.1,0.1c1.8,2.9,3.4,5.9,5,8.9l14.9-17l0,0l5-5.7c4.1,4.6,6.3,9.6,6.7,14.8c0.6,9.3-4.8,17.4-9.3,22.6l-20.5,23.3
	C371.2,177.6,370.6,175.8,369.9,173.9z"/>
<path class="st2" d="M311.2,271.4c-12.9-0.9-23.2-5.2-30.9-12.9c-6.9-6.9-15.1-20.1-15-43.6c0-5.7,0.5-11.5,1.5-17.2
	c0.1-0.8,0.3-1.7,0.4-2.5h34.4c-4.5,4-9,9-10.8,14c-2.8,7.8-1.8,16,2.6,22.3c4,5.6,10.3,9.3,17.9,10.3L311.2,271.4z"/>
<path class="st3" d="M311.2,231.9c-4-0.7-7.6-2.9-10-6.1c-2.7-3.8-3.2-8.6-1.4-13.5c1.4-3.9,6.4-8.7,11.5-12.7L311.2,231.9z"/>
<polygon class="st1" points="311.2,185.5 288.6,185.5 311.2,167.3 "/>
<path class="st3" d="M369.9,173.9c-5.5-15.8-13.8-30.5-24.6-43.3c-5.2-6-14.6-15.5-24.4-18V74.9c6.3,0.8,11.4,3.1,15.2,6.9
	c6.7,6.7,8.1,16.5,8.1,23.6v3.5c3.1,2.6,6.1,5.4,8.8,8.4l0.9-1l18.7-21.1c4.1,4.6,6.3,9.6,6.7,14.8c0.6,9.2-4.7,17.3-9.2,22.5
	l-0.1,0.1c1.8,2.9,3.4,5.9,5,8.9l14.9-17l0,0l5-5.7c4.1,4.6,6.3,9.6,6.7,14.8c0.6,9.3-4.8,17.4-9.3,22.6l-20.5,23.3
	C371.2,177.6,370.6,175.8,369.9,173.9z"/>
<path class="st1" d="M356.4,253c-7.9,11.2-19.9,17.3-35.5,18.3v-76.2H365C369.3,217.9,366.3,239.1,356.4,253z"/>
<path class="st2" d="M311.2,124.2L311.2,124.2v30.7l-42.9,34.6c1-4.1,2.2-8.2,3.5-12.2c9.9-28.5,28.1-48.8,39.3-53.9V124.2z"/>
<path class="st0" d="M270.5,356.5c-0.3-0.1-0.6-0.1-0.8-0.1c-1.9,0-2.8,1.8-2.8,3.5c0,1.7,0.9,3.7,2.8,3.7c0.3,0,0.6-0.1,0.9-0.2
	v2.1c-0.3,0.1-0.7,0.2-1,0.2c-3.2,0-5-2.9-5-5.8c0-2.8,1.8-5.6,4.9-5.6c0.4,0,0.8,0.1,1.1,0.2V356.5z"/>
<path class="st0" d="M274.2,354.4v4.4h2.2v-4.4h2.2v11.2h-2.2v-4.8h-2.2v4.8H272v-11.2H274.2z"/>
<path class="st0" d="M282.8,354.4v11.2h-2.2v-11.2H282.8z"/>
<path class="st0" d="M290.4,356.5c-0.3-0.1-0.6-0.1-0.8-0.1c-1.9,0-2.8,1.8-2.8,3.5c0,1.7,0.9,3.7,2.8,3.7c0.3,0,0.6-0.1,0.9-0.2
	v2.1c-0.3,0.1-0.7,0.2-1,0.2c-3.2,0-5-2.9-5-5.8c0-2.8,1.8-5.6,4.9-5.6c0.4,0,0.8,0.1,1.1,0.2V356.5z"/>
<path class="st0" d="M294.1,354.4v5l0,0l1.8-5h2.3l-2,5.2l2.3,6h-2.3l-2-5.7l0,0v5.7h-2.3v-11.2H294.1z"/>
<path class="st0" d="M304.3,354.4v2.1h-2.2v2.4h2v2.1h-2v2.5h2.3v2.1h-4.5v-11.2H304.3z"/>
<path class="st0" d="M308.2,354.4l2.8,6.8l0,0c-0.1-0.6-0.2-1.1-0.2-1.7v-5h2.2v11.2h-2.1l-2.7-6.8l0,0l0.1,1.1v0.5v5.1h-2.2v-11.2
	H308.2z"/>
<path class="st0" d="M318.6,365.6v-11.2h2.3c0.5,0,3.8-0.3,3.8,3.3c0.1,1.7-1.2,3.2-2.9,3.3c-0.2,0-0.3,0-0.5,0h-0.5v4.6
	L318.6,365.6z M320.8,359.2c1.1,0,1.7-0.4,1.7-1.5c0-0.8-0.3-1.5-1.3-1.5h-0.4V359.2z"/>
<path class="st0" d="M330,354.4l2.7,11.2h-2.4l-0.4-1.9h-2.2l-0.4,1.9H325l2.6-11.2H330z M329,359l-0.3-1.7l0,0l-0.2,1.7l-0.5,3h1.6
	L329,359z"/>
<path class="st0" d="M338.5,356.9c-0.4-0.4-1-0.7-1.6-0.7c-0.6,0-1.1,0.4-1.1,0.9c0,0.1,0,0.1,0,0.2c0,1.8,3.4,1.9,3.4,5
	c0,2-1.1,3.5-3.2,3.5c-0.7,0-1.3-0.2-1.9-0.6v-2.1c0.5,0.4,1.1,0.6,1.7,0.6c0.7,0,1.2-0.5,1.3-1.1c0,0,0-0.1,0-0.1
	c0-0.9-0.7-1.2-1.3-1.6c-1.3-0.9-2.1-1.7-2.1-3.3c0-1.6,1-3.3,2.9-3.3c0.7,0,1.3,0.2,1.9,0.5L338.5,356.9z"/>
<path class="st0" d="M346,354.4v2.1h-1.8v9.1H342v-9.1h-1.7v-2.1H346z"/>
<path class="st0" d="M349.5,354.4v7.3c0,0.9-0.1,2.1,1.1,2.1s1.1-0.8,1.1-1.7v-7.7h2.2v8.2c0,1.2-0.1,3.2-3.3,3.2
	c-2.1,0-3.3-1-3.3-3.1v-8.3H349.5z"/>
<path class="st0" d="M355.8,365.6v-11.2h2.2c1.4,0,3.9,0.2,3.9,3.2c0.1,1.2-0.6,2.3-1.6,2.9l1.9,5.1H360l-1.9-5.2l0,0v5.2
	L355.8,365.6z M358.1,359.2h0.4c1,0,1.4-0.7,1.4-1.6c0.1-0.7-0.4-1.3-1.1-1.4c-0.1,0-0.3,0-0.4,0h-0.3V359.2z"/>
<path class="st0" d="M368.6,354.4v2.1h-2.2v2.4h2v2.1h-2v2.5h2.3v2.1h-4.5v-11.2H368.6z"/>
<path class="st0" d="M247.8,287.7c-6.8,0-16.2,10.3-20.6,22.6c-0.9,2.6-1.6,5.2-2.1,7.9c-0.4,2.2-0.6,4.5-0.6,6.8
	c0,7.8,2.3,14.3,6.7,18.7c4.1,4.1,9.6,6.2,16.5,6.2c10.3,0,15.9-4.8,18.7-8.8c5.3-7.4,6-19.2,1.9-30.8
	C264,298,254.5,287.7,247.8,287.7z M261,337.2c-2.8,4-7.3,6-13.3,6c-5,0-9-1.4-11.8-4.2c-4-4-4.8-9.8-4.8-13.9
	c0-1.9,0.2-3.8,0.5-5.7c0.4-2.3,1-4.6,1.8-6.8c3.9-11.1,11.6-18.2,14.3-18.2s10.3,7.1,14.3,18.2l0,0
	C265.4,322.1,265,331.6,261,337.2z"/>
<polygon class="st0" points="281.4,288.9 274.8,288.9 274.8,347.9 298.8,347.9 298.8,341.4 281.4,341.4 "/>
<polygon class="st0" points="334.7,325.5 324.7,289 317.9,289 334.7,350 351.6,289 344.8,289 "/>
<rect x="305.5" y="289" class="st0" width="6.5" height="59"/>
<rect x="358.4" y="289" class="st0" width="6.5" height="59"/>
<path class="st0" d="M373.8,287.7v60.2h6.7v-21.6h16.6c2.4,7,3.7,14.3,3.8,21.6h6.7C407.5,339.8,405.4,306.6,373.8,287.7z
	 M380.5,319.6v-18.7c5.8,5.3,10.5,11.7,13.9,18.7H380.5z"/>
<path class="st1" d="M608.8,215.6v-58.2c11.2,5,29.5,25.3,39.3,53.9c0.9,2.7,1.8,5.5,2.6,8.2h-41.9V215.6z"/>
<path class="st1" d="M644.3,287c-7.9,11.1-19.9,17.3-35.5,18.3v-76.2h44.1C657.2,251.8,654.2,273,644.3,287z"/>
<polygon class="st1" points="599.1,219.5 576.5,219.5 599.1,201.2 "/>
<path class="st0" d="M618.8,190.1c-2.6,0-4.8,2.1-4.8,4.8s2.1,4.8,4.8,4.8c2.6,0,4.8-2.1,4.8-4.8S621.5,190.1,618.8,190.1z"/>
<path class="st0" d="M662.5,224.8l24.8-28.2c8.3-9.4,12.3-19.6,11.7-29.6c-0.6-9.2-5.1-17.6-13.3-24.8l-3.6-3.2l-5.3,6
	c0-0.5,0-1.1-0.1-1.6c-0.6-9.2-5.1-17.6-13.3-24.8l-3.6-3.2l-18.2,20.6c-0.6-11.1-4.4-20.4-10.8-26.9s-15.7-10-26.8-10h-4.8v47.6
	c-9.8,2.6-19.3,12.1-24.5,18.1c-10.8,12.8-19.2,27.5-24.6,43.3c-2.5,7.2-4.4,14.6-5.6,22.1c-1,6.2-1.6,12.5-1.6,18.8
	c0,21.5,6.2,39.1,18,50.9c10.6,10.7,25.1,16.1,43,16.1c21.3,0,38.1-7.9,48.7-22.8C664.6,276.3,668,251.2,662.5,224.8z M599.1,305.3
	c-12.9-0.9-23.2-5.2-30.9-12.9c-6.9-6.9-15.1-20.1-15-43.6c0-5.8,0.5-11.5,1.5-17.2c0.1-0.8,0.3-1.7,0.4-2.5h34.4
	c-4.5,4-9,9-10.8,14c-2.8,7.8-1.8,16,2.6,22.3c4,5.6,10.3,9.3,17.9,10.3V305.3z M599.1,265.9c-4-0.7-7.6-2.9-10-6.1
	c-2.7-3.8-3.2-8.6-1.4-13.5c1.4-3.8,6.4-8.7,11.4-12.7L599.1,265.9z M599.1,219.5h-22.6l22.6-18.2V219.5z M599.1,158.2L599.1,158.2
	v30.7l-42.9,34.6c1-4.1,2.1-8.2,3.5-12.1c9.9-28.5,28.1-48.8,39.3-53.9L599.1,158.2z M608.8,215.6v-58.2c11.2,5,29.5,25.3,39.4,53.9
	c0.9,2.7,1.8,5.5,2.6,8.2h-41.9L608.8,215.6z M644.3,287c-7.9,11.1-19.9,17.3-35.5,18.3v-76.2h44.1C657.2,251.8,654.2,273,644.3,287
	L644.3,287z M657.8,207.9c-5.5-15.8-13.8-30.5-24.6-43.3c-5.2-6-14.7-15.5-24.4-18v-37.6c6.3,0.8,11.4,3.1,15.2,6.9
	c6.7,6.7,8.1,16.5,8.1,23.6v3.5c3.2,2.6,6.1,5.3,8.8,8.4l1-1l18.6-21.1c4.1,4.6,6.3,9.6,6.7,14.8c0.6,9.2-4.7,17.3-9.2,22.5
	l-0.1,0.1c1.8,2.9,3.4,5.9,5,8.9l14.9-17l0,0l5-5.7c4.1,4.6,6.3,9.6,6.7,14.8c0.6,9.3-4.8,17.4-9.3,22.6l-20.5,23.2
	C659.1,211.6,658.5,209.7,657.8,207.9L657.8,207.9z"/>
<path class="st0" d="M681.2,282.5c-0.3-0.1-0.6-0.1-0.8-0.1c-1.9,0-2.8,1.8-2.8,3.5c0,1.7,0.9,3.7,2.8,3.7c0.3,0,0.6-0.1,0.8-0.2
	v2.1c-0.3,0.1-0.7,0.2-1,0.2c-3.2,0-5-2.9-5-5.8c0-2.8,1.8-5.6,4.9-5.6c0.4,0,0.8,0.1,1.1,0.2V282.5z"/>
<path class="st0" d="M684.9,280.4v4.4h2.2v-4.4h2.2v11.2h-2.2v-4.8h-2.2v4.8h-2.2v-11.2H684.9z"/>
<path class="st0" d="M693.6,280.4v11.2h-2.2v-11.2H693.6z"/>
<path class="st0" d="M701.1,282.5c-0.3-0.1-0.6-0.1-0.8-0.1c-1.9,0-2.8,1.8-2.8,3.5c0,1.7,0.8,3.7,2.8,3.7c0.3,0,0.6-0.1,0.8-0.2
	v2.1c-0.3,0.1-0.7,0.2-1,0.2c-3.2,0-5-2.9-5-5.8c0-2.8,1.8-5.6,4.9-5.6c0.4,0,0.8,0.1,1.1,0.2L701.1,282.5z"/>
<path class="st0" d="M704.8,280.4v5l0,0l1.8-5h2.3l-2.1,5.2l2.3,6h-2.3l-2-5.7l0,0v5.7h-2.2v-11.2H704.8z"/>
<path class="st0" d="M715.1,280.4v2.1h-2.2v2.4h2v2.1h-2v2.6h2.3v2.1h-4.5v-11.2H715.1z"/>
<path class="st0" d="M718.9,280.4l2.8,6.8l0,0c-0.1-0.6-0.2-1.1-0.2-1.7v-5h2.2v11.2h-2.1l-2.7-6.8l0,0l0.1,1.1v5.6h-2.2v-11.2
	H718.9z"/>
<path class="st0" d="M729.4,291.6v-11.2h2.3c0.5,0,3.8-0.3,3.8,3.3c0.1,1.7-1.2,3.2-2.9,3.3c-0.2,0-0.3,0-0.5,0h-0.5v4.6
	L729.4,291.6z M731.6,285.1c1.1,0,1.7-0.4,1.7-1.5c0-0.8-0.3-1.5-1.3-1.5h-0.4V285.1z"/>
<path class="st0" d="M740.7,280.4l2.7,11.2H741l-0.4-1.9h-2.3l-0.4,1.9h-2.2l2.6-11.2H740.7z M739.7,284.9l-0.2-1.7l0,0l-0.2,1.7
	l-0.5,3h1.6L739.7,284.9z"/>
<path class="st0" d="M749.3,282.9c-0.4-0.4-1-0.7-1.6-0.7c-0.6,0-1.1,0.4-1.1,0.9c0,0.1,0,0.1,0,0.2c0,1.8,3.4,1.9,3.4,5
	c0,2-1.1,3.5-3.2,3.5c-0.7,0-1.3-0.2-1.9-0.6v-2.1c0.5,0.4,1.1,0.6,1.7,0.6c0.7,0,1.2-0.5,1.3-1.1c0,0,0-0.1,0-0.1
	c0-0.9-0.7-1.2-1.3-1.6c-1.3-0.9-2.1-1.7-2.1-3.3s1-3.3,2.9-3.3c0.7,0,1.4,0.2,2,0.5L749.3,282.9z"/>
<path class="st0" d="M756.7,280.4v2.1H755v9.1h-2.2v-9.1H751v-2.1H756.7z"/>
<path class="st0" d="M760.3,280.4v7.3c0,0.9-0.1,2.1,1.1,2.1s1.1-0.8,1.1-1.7v-7.7h2.2v8.2c0,1.2-0.1,3.2-3.3,3.2
	c-2.1,0-3.3-1-3.3-3.1v-8.3L760.3,280.4z"/>
<path class="st0" d="M766.6,291.6v-11.2h2.2c1.4,0,3.9,0.2,3.9,3.2c0.1,1.2-0.6,2.3-1.6,2.9l1.9,5.1h-2.3l-1.9-5.2l0,0v5.2
	L766.6,291.6z M768.8,285.2h0.4c1,0,1.4-0.7,1.4-1.6c0.1-0.7-0.4-1.3-1.1-1.4c-0.1,0-0.3,0-0.4,0h-0.3L768.8,285.2z"/>
<path class="st0" d="M779.3,280.4v2.1h-2.2v2.4h2v2.1h-2v2.6h2.3v2.1h-4.5v-11.2H779.3z"/>
<path class="st0" d="M698.4,213.6c-6.8,0-16.2,10.3-20.6,22.6c-0.9,2.6-1.6,5.2-2.1,7.9c-0.4,2.2-0.6,4.5-0.6,6.8
	c0,7.8,2.3,14.3,6.7,18.7c4.1,4.1,9.6,6.2,16.5,6.2c10.3,0,15.9-4.8,18.7-8.8c5.3-7.4,6-19.2,1.9-30.8
	C714.7,224,705.2,213.6,698.4,213.6z M711.7,263.2c-2.8,4-7.3,6-13.3,6c-5,0-9-1.4-11.8-4.2c-4-4-4.8-9.8-4.8-13.9
	c0-1.9,0.2-3.8,0.5-5.7c0.4-2.3,1-4.6,1.8-6.8c3.9-11.1,11.6-18.2,14.3-18.2c2.7,0,10.3,7.1,14.3,18.2l0,0
	C716.1,248,715.7,257.5,711.7,263.2L711.7,263.2z"/>
<polygon class="st0" points="732.1,214.8 725.5,214.8 725.5,273.8 749.5,273.8 749.5,267.3 732.1,267.3 "/>
<polygon class="st0" points="785.4,251.4 775.4,215 768.6,215 785.4,276 802.3,215 795.5,215 "/>
<rect x="756.2" y="215" class="st0" width="6.5" height="59"/>
<rect x="809.1" y="215" class="st0" width="6.5" height="59"/>
<path class="st0" d="M824.6,213.6v60.2h6.7v-21.6h16.6c2.4,7,3.7,14.3,3.8,21.6h6.6C858.2,265.8,856.1,232.5,824.6,213.6z
	 M831.2,245.6v-18.7c5.8,5.3,10.5,11.7,13.8,18.8L831.2,245.6z"/>
<path class="st3" d="M657.8,207.9c-5.5-15.8-13.8-30.5-24.6-43.3c-5.2-6-14.7-15.5-24.4-18v-37.6c6.3,0.8,11.4,3.1,15.2,6.9
	c6.7,6.7,8.1,16.5,8.1,23.6v3.5c3.2,2.6,6.1,5.3,8.8,8.4l1-1l18.6-21.1c4.1,4.6,6.3,9.6,6.7,14.8c0.6,9.2-4.7,17.3-9.2,22.5
	l-0.1,0.1c1.8,2.9,3.4,5.9,5,8.9l14.9-17l0,0l5-5.7c4.1,4.6,6.3,9.6,6.7,14.8c0.6,9.3-4.8,17.4-9.3,22.6l-20.5,23.2
	C659.1,211.6,658.5,209.7,657.8,207.9z"/>
<path class="st3" d="M599.1,265.9c-4-0.7-7.6-2.9-10-6.1c-2.7-3.8-3.2-8.6-1.4-13.5c1.4-3.8,6.4-8.7,11.4-12.7V265.9z"/>
<path class="st2" d="M599.1,158.2L599.1,158.2v30.7l-42.9,34.6c1-4.1,2.1-8.2,3.5-12.1c9.9-28.5,28.1-48.8,39.3-53.9L599.1,158.2z"
	/>
<path class="st2" d="M599.1,305.3c-12.9-0.9-23.2-5.2-30.9-12.9c-6.9-6.9-15.1-20.1-15-43.6c0-5.8,0.5-11.5,1.5-17.2
	c0.1-0.8,0.3-1.7,0.4-2.5h34.4c-4.5,4-9,9-10.8,14c-2.8,7.8-1.8,16,2.6,22.3c4,5.6,10.3,9.3,17.9,10.3V305.3z"/>
<path class="st0" d="M994.5,279.5c-0.3-0.1-0.6-0.1-0.8-0.1c-1.9,0-2.8,1.8-2.8,3.5s0.9,3.7,2.8,3.7c0.3,0,0.6-0.1,0.9-0.2v2.1
	c-0.3,0.1-0.7,0.2-1,0.2c-3.2,0-5-2.9-5-5.8c0-2.8,1.8-5.6,4.9-5.6c0.4,0,0.8,0.1,1.1,0.2V279.5z"/>
<path class="st0" d="M998.2,277.4v4.4h2.2v-4.4h2.2v11.2h-2.2v-4.8h-2.2v4.8H996v-11.2H998.2z"/>
<path class="st0" d="M1006.9,277.4v11.2h-2.2v-11.2H1006.9z"/>
<path class="st0" d="M1014.4,279.5c-0.3-0.1-0.5-0.1-0.8-0.1c-1.9,0-2.8,1.8-2.8,3.5s0.9,3.7,2.8,3.7c0.3,0,0.6-0.1,0.9-0.2v2.1
	c-0.3,0.1-0.7,0.2-1,0.2c-3.2,0-5-2.9-5-5.8c0-2.8,1.8-5.6,4.9-5.6c0.4,0,0.8,0.1,1.1,0.2L1014.4,279.5z"/>
<path class="st0" d="M1018.1,277.4v5l0,0l1.8-5h2.3l-2.1,5.2l2.3,6h-2.3l-2-5.7l0,0v5.7h-2.2v-11.2H1018.1z"/>
<path class="st0" d="M1028.4,277.4v2.1h-2.2v2.4h2v2.1h-2v2.5h2.3v2.1h-4.5v-11.2H1028.4z"/>
<path class="st0" d="M1032.3,277.4l2.8,6.8l0,0c-0.1-0.6-0.2-1.1-0.2-1.7v-5h2.2v11.2h-2.1l-2.7-6.8l0,0l0.1,1.1v0.5v5.1h-2.2v-11.2
	H1032.3z"/>
<path class="st0" d="M1042.7,288.6v-11.2h2.3c0.5,0,3.8-0.3,3.8,3.3c0.1,1.7-1.2,3.2-2.9,3.3c-0.2,0-0.4,0-0.5,0h-0.5v4.6
	L1042.7,288.6z M1044.9,282.2c1.1,0,1.7-0.4,1.7-1.5c0-0.8-0.3-1.5-1.3-1.5h-0.4V282.2z"/>
<path class="st0" d="M1054,277.4l2.7,11.2h-2.4l-0.4-1.9h-2.2l-0.4,1.9h-2.2l2.6-11.2H1054z M1053.1,282l-0.2-1.7l0,0l-0.2,1.7
	l-0.5,3h1.6L1053.1,282z"/>
<path class="st0" d="M1062.6,280c-0.4-0.4-1-0.7-1.6-0.7c-0.6-0.1-1.1,0.4-1.1,0.9c0,0.1,0,0.1,0,0.2c0,1.8,3.4,1.9,3.4,5
	c0,2-1.1,3.5-3.2,3.5c-0.7,0-1.3-0.2-1.9-0.6v-2.1c0.5,0.4,1.1,0.6,1.7,0.6c0.7,0,1.2-0.5,1.3-1.1c0,0,0-0.1,0-0.1
	c0-0.9-0.7-1.2-1.3-1.6c-1.3-0.9-2.1-1.7-2.1-3.3s1-3.3,2.9-3.3c0.7,0,1.3,0.2,1.9,0.6L1062.6,280z"/>
<path class="st0" d="M1070,277.4v2.1h-1.7v9.1h-2.2v-9.1h-1.7v-2.1H1070z"/>
<path class="st0" d="M1073.6,277.4v7.3c0,0.9-0.1,2.1,1.1,2.1c1.2,0,1.1-0.8,1.1-1.7v-7.7h2.2v8.2c0,1.2-0.1,3.2-3.3,3.2
	c-2.1,0-3.3-1-3.3-3.1v-8.3L1073.6,277.4z"/>
<path class="st0" d="M1079.9,288.6v-11.2h2.2c1.4,0,3.9,0.1,3.9,3.2c0.1,1.2-0.6,2.3-1.6,2.9l1.9,5.1h-2.3l-1.9-5.2l0,0v5.2
	L1079.9,288.6z M1082.1,282.2h0.4c1,0,1.4-0.7,1.4-1.6c0.1-0.7-0.4-1.3-1.1-1.4c-0.1,0-0.3,0-0.4,0h-0.3V282.2z"/>
<path class="st0" d="M1092.6,277.4v2.1h-2.2v2.4h2v2.1h-2v2.5h2.3v2.1h-4.5v-11.2H1092.6z"/>
<path class="st0" d="M971.8,210.7c-6.8,0-16.2,10.3-20.6,22.6c-0.9,2.6-1.6,5.3-2.1,8c-0.4,2.2-0.6,4.5-0.6,6.8
	c0,7.8,2.3,14.3,6.7,18.7c4.1,4.1,9.6,6.2,16.5,6.2c10.3,0,15.9-4.8,18.7-8.8c5.3-7.5,6-19.3,1.9-30.8
	C988,221.1,978.6,210.7,971.8,210.7z M985.1,260.2c-2.8,4-7.3,6-13.3,6c-5,0-9-1.4-11.8-4.2c-4-4-4.8-9.8-4.8-13.9
	c0-1.9,0.2-3.8,0.5-5.7c0.4-2.3,1-4.6,1.8-6.8c3.9-11.1,11.6-18.2,14.3-18.2s10.3,7.1,14.3,18.2l0,0
	C989.5,245.1,989.1,254.5,985.1,260.2z"/>
<polygon class="st0" points="1005.4,211.9 998.9,211.9 998.9,270.9 1022.8,270.9 1022.8,264.4 1005.4,264.4 "/>
<polygon class="st0" points="1058.8,248.5 1048.7,212 1041.9,212 1058.8,273 1075.7,212 1068.9,212 "/>
<rect x="1029.6" y="212" class="st0" width="6.5" height="59"/>
<rect x="1082.4" y="212" class="st0" width="6.5" height="59"/>
<path class="st0" d="M1097.9,210.7v60.2h6.7v-21.6h16.6c2.4,7,3.7,14.3,3.8,21.6h6.7C1131.6,262.8,1129.4,229.6,1097.9,210.7z
	 M1104.6,242.6v-18.7c5.8,5.3,10.5,11.6,13.9,18.7L1104.6,242.6z"/>
</svg>
