<?xml version="1.0" encoding="utf-8"?>
<!-- Generator: Adobe Illustrator 22.1.0, SVG Export Plug-In . SVG Version: 6.00 Build 0)  -->
<svg version="1.1" id="Layer_1" xmlns="http://www.w3.org/2000/svg" xmlns:xlink="http://www.w3.org/1999/xlink" x="0px" y="0px"
	 viewBox="0 0 973.4 1075.9" style="enable-background:new 0 0 973.4 1075.9;" xml:space="preserve">
<style type="text/css">
	.st0{fill:#414042;}
</style>
<title>Asset 5</title>
<path class="st0" d="M392.9,343.6c26.3,19.7,53.9,47.7,53.9,73.9c0,15.6-7.5,40.7-53.8,46.1L392.9,343.6 M373.3,484.2
	c66.1,0,93-30.9,93-66.7c0-51.2-69.8-97.1-93-110.1L373.3,484.2z"/>
<path class="st0" d="M292.2,309.2c-20,0-47.7,30.3-60.5,66.4c-2.7,7.6-4.7,15.4-6.1,23.4c-1.1,6.6-1.7,13.3-1.7,20
	c0,22.9,6.8,41.9,19.8,54.9c12,12,28.3,18.1,48.5,18.1c30.3,0,46.7-14.1,55-25.8c15.4-21.8,17.5-56.6,5.5-90.5
	C339.9,339.5,312.2,309.2,292.2,309.2z M331.2,454.7c-8.2,11.6-21.3,17.5-39,17.5c-14.8,0-26.4-4.2-34.6-12.4
	c-11.6-11.6-14.1-28.7-14-41c0-5.6,0.5-11.2,1.5-16.7c1.2-6.8,2.9-13.5,5.2-20c11.6-32.5,34.1-53.3,42-53.3s30.3,20.8,42,53.3l0,0
	C344.1,410.1,343,437.9,331.2,454.7L331.2,454.7z"/>
<path class="st0" d="M854.9,400.4c0,51-12,71.8-41.5,71.8c-6,0-14.1-2.1-18.6-6.6l-13.9,13.9c9.1,9.1,22.8,12.4,32.5,12.4
	c54.8,0,61.1-52.2,61.1-91.4c0-51,12-71.8,41.5-71.8V309C861.2,309,854.9,361.1,854.9,400.4z"/>
<path class="st0" d="M636.5,343.4c11.4-6.7,23.8-11.7,36.7-14.6l-1.8-9.7l-1.8-9.6c-30.1,5.7-86.9,31.6-86.9,89.1
	c0,57.7,57.1,81.2,87.4,85.5l2.8-19.4c-12.8-2.3-25.2-6.6-36.7-12.8c-22.5-12.6-34-30.5-34-53.3
	C602.2,375.9,613.8,357.1,636.5,343.4z"/>
<path class="st0" d="M692.7,484.2h78v-19.6h-58.3V406c0-6.2,18.1-26.8,47.9-37.4l-6.6-18.5c-15.1,5.3-29.2,13.4-41.4,23.8v-44.4
	h58.3V310h-78V484.2z"/>
<path class="st0" d="M78.4,315.7l-15-9.3v177.7h19.6v-49.8c16.3-2.3,30.1-9.9,38.6-22.1c9.5-13.5,11.6-30.8,5.6-47.5
	C119,341.3,82.6,318.3,78.4,315.7z M105.7,401c-4.9,7-12.9,11.7-22.6,13.6V343c11.2,8.8,22.7,19.7,25.7,28.4
	C112.7,382.2,111.5,392.7,105.7,401z"/>
<path class="st0" d="M550,439c0,14.1-11.4,25.5-25.5,25.5c-14.1,0-25.5-11.4-25.5-25.5V309.7h-19.7V439c0,24.9,20.2,45.2,45.2,45.2
	c24.9,0,45.2-20.2,45.2-45.2V309.7H550V439z"/>
<path class="st0" d="M230.1,484.2l-33.2-60.3c4.5-3.2,8.4-7.1,11.6-11.5c9.5-13.5,11.5-30.8,5.6-47.5c-8.3-23.5-44.8-46.5-48.9-49.1
	l-15-9.3v177.7h19.6v-49.8c3.2-0.4,6.3-1.1,9.4-2l28.5,51.8L230.1,484.2z M169.8,414.6V343c11.2,8.7,22.6,19.7,25.7,28.4
	c3.8,10.8,2.7,21.3-3.1,29.6C187.5,408,179.5,412.7,169.8,414.6z"/>
<path class="st0" d="M116.7,61.4c-20,0-47.7,30.3-60.5,66.4c-2.7,7.6-4.7,15.4-6.1,23.3c-1.1,6.6-1.7,13.3-1.7,20
	c0,22.9,6.8,41.9,19.8,54.9c12,12,28.3,18.1,48.5,18.1c30.3,0,46.7-14.1,55-25.8c15.4-21.8,17.5-56.5,5.5-90.5
	C164.4,91.8,136.7,61.4,116.7,61.4z M155.7,206.9c-8.2,11.6-21.3,17.5-39,17.5c-14.8,0-26.4-4.2-34.6-12.4
	c-11.6-11.6-14.1-28.7-14-41c0-5.6,0.5-11.2,1.5-16.8c1.2-6.8,2.9-13.5,5.2-20c11.6-32.5,34.1-53.3,42-53.3s30.3,20.8,42,53.3l0,0
	C168.7,162.4,167.5,190.2,155.7,206.9z"/>
<rect x="449" y="63.3" class="st0" width="19.6" height="174.6"/>
<rect x="289.4" y="63.3" class="st0" width="19.6" height="174.6"/>
<polygon class="st0" points="217.6,63.3 198,63.3 198,237.9 269.9,237.9 269.9,218.2 217.6,218.2 "/>
<polygon class="st0" points="409.1,63.3 378.8,172.9 348.5,63.3 328.2,63.3 378.8,246.5 429.5,63.3 "/>
<path class="st0" d="M488.1,62.2v176.6h19.5v-75.4h44.2c10.1,23.9,15.4,49.5,15.8,75.4h19.5C587,215.1,580.6,117.7,488.1,62.2z
	 M507.6,143.9v-43.1c13.7,12.5,25.3,27,34.5,43.1H507.6z"/>
<path class="st0" d="M809.8,651.1c0,51-12,71.8-41.5,71.8c-6,0-14.1-2-18.6-6.6l-13.9,13.9c9.1,9.1,22.8,12.4,32.5,12.4
	c54.8,0,61.1-52.1,61.1-91.4c0-51,12-71.8,41.5-71.8v-19.6C816.1,559.7,809.8,611.9,809.8,651.1z"/>
<path class="st0" d="M110.3,594.1c11.4-6.7,23.8-11.7,36.7-14.6l-1.8-9.6l-1.8-9.6c-30.1,5.7-86.9,31.6-86.9,89
	c0,57.7,57.1,81.2,87.4,85.5l2.8-19.4c-12.8-2.3-25.2-6.7-36.6-12.9c-22.5-12.6-34-30.5-34-53.3C76,626.5,87.6,607.9,110.3,594.1z"
	/>
<path class="st0" d="M356.9,594.1c11.4-6.7,23.8-11.7,36.7-14.6l-1.8-9.6l-1.8-9.6c-30.1,5.7-86.9,31.6-86.9,89.1
	c0,57.7,57.1,81.2,87.4,85.5l2.8-19.4c-12.8-2.3-25.2-6.7-36.6-12.9c-22.5-12.6-34-30.5-34-53.3
	C322.6,626.5,334.2,607.9,356.9,594.1z"/>
<path class="st0" d="M536,734.9h78v-19.6h-58.3v-58.5c0-6.2,18.1-26.7,47.9-37.4l-6.6-18.5c-15.1,5.3-29.1,13.4-41.4,23.8v-44.4H614
	v-19.6h-78V734.9z"/>
<rect x="270.4" y="560.2" class="st0" width="19.6" height="174.6"/>
<path class="st0" d="M231.3,612.8c-7.2-2.3-14.7-3.5-22.2-3.4c-7.8-0.1-15.6,1.2-22.9,3.7v-52.9h-19.6v174.6h19.6V634.8
	c6.2-3.7,13.9-5.8,22.9-5.8c8.7,0,16.1,1.8,22.2,5.2v100.6h19.6V560.2h-19.6V612.8z"/>
<path class="st0" d="M704.9,583.2c-1.2-1.5-2.5-3-3.9-4.4c-14.2-14.3-33.6-21.5-57.7-21.5h-9.8l-0.1,177.6h19.6V577.5
	c14.1,1.6,25.5,6.7,34,15.2c14.7,14.8,17.8,36.2,17.8,51.6v90.6h19.6V557.4h-19.6V583.2z"/>
<rect x="412" y="560.6" class="st0" width="19.6" height="174.1"/>
<path class="st0" d="M465.1,622.6l29.5-62h-21.8l-32,67.2l6,4.9c0.3,0.3,33.6,27.7,43.5,61.6c3.9,13.2,6,26.8,6.2,40.6l19.6-0.2
	c-0.3-15.5-2.6-30.9-7-45.8C500.2,658,476.3,633,465.1,622.6z"/>
<path class="st0" d="M594.5,890.5c0,51-12,71.8-41.5,71.8c-6,0-14.1-2-18.6-6.6l-13.9,13.9c9.1,9.1,22.8,12.4,32.5,12.4
	c54.8,0,61.1-52.2,61.1-91.4c0-51,12-71.8,41.5-71.8v-19.6C600.8,799.1,594.5,851.3,594.5,890.5z"/>
<path class="st0" d="M237.3,974.3h77.9v-19.6H257v-58.5c0-6.2,18.1-26.7,47.9-37.4l-6.7-18.5c-15.1,5.3-29.1,13.4-41.3,23.8v-44.4
	h58.2v-19.6h-77.9V974.3z"/>
<path class="st0" d="M189.3,974.3c-7.8-10.4-16.4-24.5-16.4-32.1V881h16.4v-19.3H173v-17.2h-19.3v17.2h-6.6
	c-15.6,0-27.2-3.8-34.6-11.2c-8.7-8.7-10.7-21.5-11.1-31.4h57.1v-19.3H82V811c0,11.7-0.2,36.1,16.8,53.1c0.1,0.1,0.3,0.2,0.4,0.4
	c-29.5,9.6-45.7,41.4-36.1,70.9s41.4,45.7,70.9,36.1c8.7-2.8,16.5-7.7,22.9-14.3c2.4,6,5.4,11.7,8.9,17.1H189.3z M153.7,917.9
	c0,20.4-16.5,36.9-36.9,36.9s-36.9-16.5-36.9-36.9S96.3,881,116.7,881h36.9V917.9z"/>
<path class="st0" d="M489.6,849.8h-24.1v19.6h24.1V938c-26.3-19.8-54.1-47.8-54.1-74.1c0-16.4,8.3-43.1,60.7-46.9v-19.6
	c-56.9,3.8-80.3,33-80.3,66.5c0,51.3,70,97.4,93.2,110.4V849.8H489.6z"/>
<path class="st0" d="M388.9,849.8h-24.1v19.6h24.1V938c-26.3-19.8-54.1-47.8-54.1-74.1c0-16.4,8.3-43.1,60.7-46.9v-19.6
	c-56.9,3.8-80.3,33-80.3,66.5c0,51.3,70,97.4,93.2,110.4V849.8H388.9z"/>
</svg>
