<svg id="Layer_2" data-name="Layer 2" xmlns="http://www.w3.org/2000/svg" viewBox="0 0 6400 768"><defs><style>.cls-1{fill:#757575;}.cls-2{fill:#14130f;}</style></defs><title>bg0</title><path class="cls-1" d="M4172.16,176.25h-6.53a3,3,0,1,1,0-6h6.53a3,3,0,1,1,0,6Z"/><path class="cls-2" d="M4165.62,0V209.68c0,3.22,1.55,5.83,3.45,5.83s3.44-2.61,3.44-5.83V0Z"/><path class="cls-2" d="M2823.87,589.51c-114.58,76-174.79,137.31-206.15,178.49H2810q.21-4.38.56-8.87C2816.93,677.25,2846,574.85,2823.87,589.51Z"/><path class="cls-2" d="M4831.4,500C4620.55,418.27,4423,346.76,4247.24,288.42a245.64,245.64,0,0,0,3.52-28.61c1.82-29.89-3-52.45-14.44-67-9.42-12.05-23.32-18.42-40.2-18.42-20.05,0-35.62,6.7-46.29,19.92-13.79,17.08-15.47,41.21-14.61,57.82q-82.38-26.06-156.66-47.46c-130-37.44-239.87-63.61-326.49-77.78-96.52-15.79-163.58-17-205-3.68-138.15,44.41-297.69,108.32-474.19,190-141.08,65.26-293.27,142-452.35,227.93C2347.78,634.44,2204,718.81,2122,768h44.87c84.59-50.26,213.52-125.06,364.71-206.77C2690.25,475.49,2842,399,2982.61,334c175.62-81.24,334.26-144.8,471.5-188.91,37.34-12,102.7-10.5,194.25,4.48,85.73,14,194.68,40,323.84,77.18,230.5,66.38,524.73,168.29,850.88,294.71,204.49,79.27,411.09,164.12,600.77,246.56h57.46C5278.4,678.89,5053.65,586.15,4831.4,500ZM4225.21,281.14q-33.68-11.08-66.22-21.49c-1.45-11.66-2.86-36.56,8.74-50.93,6.17-7.65,15.46-11.37,28.39-11.37,9.94,0,16.95,3,22.07,9.57C4231.39,223.79,4228.87,259.38,4225.21,281.14Z"/><path class="cls-2" d="M896.68,768C842.85,610.86,681.82,164.19,622.52,0H611.89C669.79,160.31,831,607.42,886.11,768Z"/><path class="cls-2" d="M281.67,768c-29.93-62.15-11.51-128.91-32.23-147.33C168.61,556.74,43.26,431.43,0,387.61V768H281.67Z"/></svg>