<?xml version="1.0" encoding="utf-8"?>
<!-- Generator: Adobe Illustrator 23.0.1, SVG Export Plug-In . SVG Version: 6.00 Build 0)  -->
<svg version="1.1" id="Layer_1" xmlns="http://www.w3.org/2000/svg" xmlns:xlink="http://www.w3.org/1999/xlink" x="0px" y="0px"
	 viewBox="0 0 1280 573.3" style="enable-background:new 0 0 1280 573.3;" xml:space="preserve">
<style type="text/css">
	.st0{fill:#FFFFFF;}
	.st1{fill:#8767AD;}
</style>
<rect class="st0" width="1280" height="573.3"/>
<title>Asset 6</title>
<g id="Layer_2_1_">
	<g id="Layer_1-2">
		<circle class="st1" cx="665.2" cy="292.4" r="136.5"/>
		<path class="st0" d="M593.8,280.8h6.5v28.3h-6.5v-3c-2.7,2.5-5.6,3.8-8.7,3.8c-3.7,0.1-7.3-1.5-9.7-4.2c-2.5-2.9-3.8-6.5-3.8-10.8
			c0-4.2,1.3-7.8,3.8-10.6c2.4-2.8,5.9-4.3,9.5-4.2c3.3,0,6.3,1.3,8.9,4.1V280.8z M578.3,294.9c0,2.7,0.7,4.9,2.2,6.6
			c1.4,1.7,3.4,2.6,5.6,2.6c2.2,0.1,4.4-0.8,5.9-2.5c1.5-1.7,2.2-3.9,2.2-6.5s-0.8-4.8-2.2-6.5c-1.5-1.7-3.6-2.6-5.8-2.5
			c-2.2,0-4.2,0.9-5.6,2.6C579,290.3,578.2,292.6,578.3,294.9z"/>
		<path class="st0" d="M613.7,280.8v16.2c0,4.7,1.8,7.1,5.5,7.1c3.7,0,5.5-2.4,5.5-7.1v-16.2h6.5v16.4c0,2-0.3,4-0.8,5.9
			c-0.6,1.6-1.6,2.9-2.8,4c-2.2,1.9-5,2.9-8.4,2.9c-3.4,0-6.2-1-8.4-2.9c-1.3-1-2.3-2.4-2.9-4c-0.5-1.3-0.8-3.3-0.8-5.9v-16.4H613.7
			z"/>
		<path class="st0" d="M664.7,308.5c0,1.3,0,2.5-0.1,3.5c-0.1,0.9-0.2,1.8-0.4,2.7c-0.4,2.1-1.3,3.9-2.7,5.5
			c-2.6,2.9-6.1,4.4-10.5,4.4c-3.8,0-6.9-1-9.3-3.1c-2.5-2.1-4-5-4.4-8.7h6.6c0.2,1.2,0.6,2.3,1.3,3.2c1.3,1.8,3.4,2.6,5.9,2.6
			c4.8,0,7.2-2.9,7.2-8.8V306c-2.6,2.6-5.6,4-9,4c-3.9,0-7-1.4-9.5-4.2c-2.5-2.8-3.7-6.3-3.7-10.6c0-4.1,1.1-7.6,3.4-10.5
			c2.5-3.1,5.8-4.6,9.8-4.6c3.4-0.1,6.7,1.4,8.9,4v-3.2h6.5L664.7,308.5z M658.4,295c0-2.7-0.8-5-2.2-6.6c-1.4-1.6-3.5-2.6-5.7-2.5
			c-2.5,0-4.4,0.9-5.9,2.8c-1.3,1.6-1.9,3.8-1.9,6.4s0.6,4.7,1.9,6.3c1.4,1.8,3.4,2.7,5.9,2.7c2.5,0,4.5-0.9,5.9-2.7
			C657.7,299.7,658.4,297.6,658.4,295L658.4,295z"/>
		<path class="st0" d="M672.1,305.9c0.1-2.2,2-4,4.2-3.9c2.1,0.1,3.8,1.8,3.9,3.9c0.1,2.2-1.7,4.1-3.9,4.2c-2.2,0.1-4.1-1.7-4.2-3.9
			C672.1,306,672.1,306,672.1,305.9z"/>
		<path class="st0" d="M707.3,280.8h6.5v28.3h-6.5v-3c-2.7,2.5-5.6,3.8-8.7,3.8c-3.7,0.1-7.3-1.5-9.7-4.2c-2.5-2.9-3.8-6.5-3.8-10.8
			c0-4.2,1.3-7.8,3.8-10.6c2.4-2.8,5.9-4.3,9.5-4.2c3.3,0,6.3,1.3,8.9,4.1V280.8z M691.8,294.9c0,2.7,0.7,4.9,2.2,6.6
			c1.4,1.7,3.4,2.6,5.6,2.6c2.2,0.1,4.4-0.8,5.9-2.5c1.5-1.7,2.2-3.9,2.2-6.5s-0.8-4.8-2.2-6.5c-1.5-1.7-3.6-2.6-5.8-2.5
			c-2.2,0-4.2,0.9-5.6,2.6C692.6,290.3,691.8,292.6,691.8,294.9L691.8,294.9z"/>
		<path class="st0" d="M721.1,280.8h6.5v2.5c0.9-1,2-1.9,3.2-2.6c1-0.5,2.2-0.8,3.4-0.7c1.9,0,3.8,0.6,5.4,1.7l-3,6
			c-1-0.8-2.3-1.3-3.7-1.3c-3.6,0-5.3,2.7-5.3,8.1v14.7h-6.5L721.1,280.8L721.1,280.8z"/>
		<path class="st0" d="M753.7,286.9v22.2h-6.5v-22.2h-2.8v-6.1h2.8v-10.4h6.5v10.4h5.1v6.1H753.7z"/>
	</g>
</g>
</svg>
